<svg version="1.1" id="Layer_1" xmlns="http://www.w3.org/2000/svg" xmlns:xlink="http://www.w3.org/1999/xlink" viewBox="0 0 512 512" xml:space="preserve" width="30px" height="30px" fill="#000000"><g id="SVGRepo_bgCarrier" stroke-width="0"></g><g id="SVGRepo_tracerCarrier" stroke-linecap="round" stroke-linejoin="round"></g><g id="SVGRepo_iconCarrier"> <g> <path style="fill:#507C5C;" d="M256,166.877c-74.545,0-135.191-60.646-135.191-135.191c0-7.942,6.439-14.382,14.382-14.382 s14.382,6.44,14.382,14.382c0,58.684,47.743,106.427,106.427,106.427c15.911,0,31.208-3.421,45.464-10.168 c7.18-3.394,15.754-0.331,19.151,6.849c3.397,7.18,0.331,15.754-6.849,19.151C295.635,162.527,276.198,166.877,256,166.877z"></path> <path style="fill:#507C5C;" d="M357.537,111.537c-2.674,0-5.377-0.745-7.791-2.304c-6.672-4.309-8.586-13.213-4.277-19.883 c11.094-17.174,16.958-37.114,16.958-57.663c0-7.942,6.439-14.382,14.382-14.382s14.382,6.44,14.382,14.382 c0,26.099-7.456,51.436-21.56,73.269C366.88,109.216,362.256,111.537,357.537,111.537z"></path> <path style="fill:#507C5C;" d="M497.618,166.877c-74.545,0-135.191-60.646-135.191-135.191c0-7.942,6.439-14.382,14.382-14.382 s14.382,6.44,14.382,14.382c0,58.684,47.743,106.427,106.427,106.427c7.943,0,14.382,6.44,14.382,14.382 S505.561,166.877,497.618,166.877z"></path> <path style="fill:#507C5C;" d="M14.382,166.877C6.439,166.877,0,160.437,0,152.495s6.439-14.382,14.382-14.382 c58.684,0,106.427-47.743,106.427-106.427c0-7.942,6.439-14.382,14.382-14.382s14.382,6.44,14.382,14.382 C149.573,106.231,88.927,166.877,14.382,166.877z"></path> <path style="fill:#507C5C;" d="M135.191,253.057c-7.943,0-14.382-6.44-14.382-14.382v-75.555c0-7.942,6.439-14.382,14.382-14.382 s14.382,6.44,14.382,14.382v75.555C149.573,246.619,143.134,253.057,135.191,253.057z"></path> <path style="fill:#507C5C;" d="M376.809,253.057c-7.943,0-14.382-6.44-14.382-14.382v-75.555c0-7.942,6.439-14.382,14.382-14.382 s14.382,6.44,14.382,14.382v75.555C391.191,246.619,384.752,253.057,376.809,253.057z"></path> <path style="fill:#507C5C;" d="M256,253.057c-7.943,0-14.382-6.44-14.382-14.382v-32.022c0-7.942,6.439-14.382,14.382-14.382 s14.382,6.44,14.382,14.382v32.022C270.382,246.619,263.943,253.057,256,253.057z"></path> </g> <rect x="34.531" y="291.898" style="fill:#CFF09E;" width="442.952" height="57.528"></rect> <path style="fill:#507C5C;" d="M477.475,277.517H34.525c-7.943,0-14.382,6.44-14.382,14.382v57.528 c0,7.942,6.439,14.382,14.382,14.382h60.396v116.504c0,7.942,6.439,14.382,14.382,14.382h57.528c7.943,0,14.382-6.44,14.382-14.382 v-79.124c0-7.942-6.439-14.382-14.382-14.382c-7.943,0-14.382,6.44-14.382,14.382v64.742h-28.764V363.809h207.101v116.504 c0,7.942,6.439,14.382,14.382,14.382h57.528c7.943,0,14.382-6.44,14.382-14.382v-79.124c0-7.942-6.439-14.382-14.382-14.382 s-14.382,6.44-14.382,14.382v64.742h-28.764V363.809h117.924c7.943,0,14.382-6.44,14.382-14.382v-57.528 C491.857,283.956,485.418,277.517,477.475,277.517z M463.092,335.045H48.908v-28.764h414.184v28.764H463.092z"></path> </g></svg>