<svg height="40px" width="40px" version="1.1" id="Layer_1" xmlns="http://www.w3.org/2000/svg" xmlns:xlink="http://www.w3.org/1999/xlink" viewBox="0 0 503.467 503.467" xml:space="preserve" fill="#000000"><g id="SVGRepo_bgCarrier" stroke-width="0"></g><g id="SVGRepo_tracerCarrier" stroke-linecap="round" stroke-linejoin="round"></g><g id="SVGRepo_iconCarrier"> <g transform="translate(1 1)"> <path style="fill:#AE938D;" d="M250.734,293.4c-76.8,0-128,119.467-128,204.8h256C378.734,412.867,327.534,293.4,250.734,293.4"></path> <path style="fill:#50DD8E;" d="M125.293,447H14.36l0,0c-6.827,30.72-10.24,51.2-10.24,51.2h119.467 C122.734,481.133,123.587,464.067,125.293,447L125.293,447L125.293,447c-1.707,18.773-2.56,34.987-2.56,51.2 c0-85.333,51.2-204.8,128-204.8s128,119.467,128,204.8c0-17.067-0.853-34.133-2.56-51.2 c-10.24-93.867-48.64-190.293-125.44-244.053C173.934,256.707,135.534,353.133,125.293,447c0.853,0.853,0.853,0.853,0,1.707V447z M376.174,447H487.96l0,0c6.827,30.72,10.24,51.2,10.24,51.2H378.734C378.734,481.133,377.88,464.067,376.174,447L376.174,447z M250.734,139.8c32.427,0,60.587,9.387,84.48,25.6c-32.427,6.827-60.587,20.48-84.48,37.547 c-24.747-17.067-52.907-29.867-84.48-37.547C190.147,149.187,218.307,139.8,250.734,139.8z"></path> <path style="fill:#E4F2DE;" d="M487.96,447L487.96,447H376.174l0,0c-10.24-93.867-48.64-190.293-125.44-244.053 c24.747-17.067,52.907-29.867,85.333-37.547C426.52,224.28,470.894,369.347,487.96,447z M125.293,447L125.293,447H13.507l0,0 c17.92-77.653,62.293-222.72,152.747-281.6c32.427,6.827,60.587,20.48,84.48,37.547C173.934,256.707,135.534,353.133,125.293,447z"></path> <polygon style="fill:#50DD8E;" points="327.534,3.267 301.934,28.867 327.534,54.467 242.2,54.467 242.2,3.267 "></polygon> </g> <path style="fill:#51565F;" d="M499.2,503.467h-85.333c-2.56,0-4.267-1.707-4.267-4.267c0-2.56,1.707-4.267,4.267-4.267h80.213 c-0.853-7.68-4.267-22.187-8.533-42.667H381.44C383.147,468.48,384,483.84,384,499.2c0,2.56-1.707,4.267-4.267,4.267 s-4.267-1.707-4.267-4.267c0-81.92-47.787-200.533-123.733-200.533S128,417.28,128,499.2c0,2.56-1.707,4.267-4.267,4.267 c-2.56,0-4.267-1.707-4.267-4.267c0-15.36,0.853-30.72,2.56-46.933H17.92c-4.267,20.48-7.68,34.987-8.533,42.667H89.6 c2.56,0,4.267,1.707,4.267,4.267c0,2.56-1.707,4.267-4.267,4.267H4.267c-0.853,0-2.56-0.853-3.413-1.707S0,499.2,0,498.347 c1.707-14.507,53.76-361.813,251.733-361.813S500.907,483.84,503.467,498.347c0,0.853,0,2.56-0.853,3.413 C501.76,502.613,500.054,503.467,499.2,503.467z M380.587,443.733H483.84c-18.773-77.653-62.293-215.893-148.48-273.067 c-29.013,6.827-54.613,17.92-76.8,32.427C333.654,258.56,370.347,354.133,380.587,443.733z M19.627,443.733H122.88 c10.24-89.6,46.933-185.173,121.173-239.787c-22.187-14.507-47.787-25.6-76.8-32.427C81.92,227.84,38.4,366.08,19.627,443.733z M251.734,290.133c51.2,0,91.307,50.347,112.64,109.227c-16.213-74.24-51.2-145.92-112.64-190.293 c-61.44,44.373-97.28,116.053-112.64,190.293C160.427,340.48,200.534,290.133,251.734,290.133z M178.347,164.693 c28.16,7.68,52.053,18.773,73.387,33.28c21.333-14.507,46.08-26.453,73.387-33.28c-22.187-12.8-46.08-19.627-73.387-19.627 S199.68,151.893,178.347,164.693z M243.2,110.933c-2.56,0-4.267-1.707-4.267-4.267V4.267c0-2.56,1.707-4.267,4.267-4.267h85.333 c1.707,0,3.413,0.853,4.267,2.56c0.853,1.707,0,3.413-0.853,4.267L309.76,29.013L331.947,51.2c0.853,0.853,1.707,3.413,0.853,4.267 c-0.853,0.853-2.56,2.56-4.267,2.56h-51.2c-2.56,0-4.267-1.707-4.267-4.267s1.707-4.267,4.267-4.267h40.96l-17.92-17.92 c-1.707-1.707-1.707-4.267,0-5.973l17.92-17.92h-70.827v98.987C247.467,109.227,245.76,110.933,243.2,110.933z"></path> </g></svg>