<svg height="40px" width="40px" version="1.1" id="Layer_1" xmlns="http://www.w3.org/2000/svg" xmlns:xlink="http://www.w3.org/1999/xlink" viewBox="0 0 512.00 512.00" xml:space="preserve" fill="#000000"><g id="SVGRepo_bgCarrier" stroke-width="0"></g><g id="SVGRepo_tracerCarrier" stroke-linecap="round" stroke-linejoin="round"></g><g id="SVGRepo_iconCarrier"> <path style="fill:#8697CB;" d="M463.889,344.685h36.673c-6.943,16.129-18.348,29.421-32.418,38.675s-30.782,14.482-48.34,14.482 H92.197c-35.117,0-66.871-20.899-80.758-53.156h36.673H463.889z"></path> <path style="fill:#C0BFD4;" d="M463.889,333.132v11.553H48.112v-11.553c0-92.86,75.29-168.139,168.15-168.139h11.553h56.37h11.553 C388.599,164.993,463.889,240.272,463.889,333.132z"></path> <path style="fill:#8697CB;" d="M284.186,140.526v24.468h-56.37v-24.468c0-14.562,11.805-26.366,26.378-26.366h3.615 C272.381,114.159,284.186,125.964,284.186,140.526z"></path> <path d="M510.116,338.396c-2.116-3.215-5.706-5.15-9.555-5.15h-25.234v-0.114c0-99.02-80.563-179.577-179.589-179.577h-0.116 v-13.029c0-20.846-16.964-37.805-37.817-37.805h-3.615c-20.852,0-37.817,16.959-37.817,37.805v13.029h-0.116 c-99.026,0-179.589,80.558-179.589,179.577v0.114H11.44c-3.848,0-7.439,1.935-9.555,5.15s-2.474,7.277-0.953,10.812 c15.71,36.492,51.533,60.072,91.265,60.072h327.607c19.462,0,38.351-5.659,54.626-16.363c16.266-10.699,28.936-25.813,36.638-43.709 C512.59,345.672,512.232,341.61,510.116,338.396z M239.254,140.526c0-8.231,6.701-14.928,14.939-14.928h3.615 c8.237,0,14.939,6.696,14.939,14.928v13.029h-33.493V140.526z M59.551,333.132c0-86.405,70.3-156.7,156.711-156.7h11.554h56.369 h11.554c86.411,0,156.711,70.296,156.711,156.7v0.114H59.551V333.132z M461.859,373.803c-12.531,8.243-27.074,12.6-42.055,12.6 H92.197c-24.31,0-46.718-11.467-60.962-30.278h16.877h415.777h16.879C475.551,363.012,469.177,368.988,461.859,373.803z"></path> <path d="M229.12,197.022h-12.857c-61.676,0-115.791,41.642-131.599,101.264c-1.619,6.106,2.019,12.369,8.126,13.988 c0.981,0.261,1.969,0.384,2.939,0.384c5.062,0,9.691-3.386,11.049-8.509c13.152-49.605,58.173-84.25,109.485-84.25h12.857 c6.316,0,11.439-5.121,11.439-11.439C240.558,202.143,235.436,197.022,229.12,197.022z"></path> <path d="M270.299,197.022h-5.296c-6.316,0-11.439,5.121-11.439,11.439c0,6.318,5.122,11.439,11.439,11.439h5.296 c6.316,0,11.439-5.121,11.439-11.439C281.738,202.143,276.616,197.022,270.299,197.022z"></path> </g></svg>