<svg height="40px" width="40px" version="1.1" id="Layer_1" xmlns="http://www.w3.org/2000/svg" xmlns:xlink="http://www.w3.org/1999/xlink" viewBox="0 0 504.32 504.32" xml:space="preserve" fill="#000000"><g id="SVGRepo_bgCarrier" stroke-width="0"></g><g id="SVGRepo_tracerCarrier" stroke-linecap="round" stroke-linejoin="round"></g><g id="SVGRepo_iconCarrier"> <g transform="translate(9 1)"> <path style="fill:#AE938D;" d="M366.467,437.613l48.64-10.24c4.267-0.853,7.68-5.12,6.827-10.24l-6.827-33.28 c-0.853-4.267-5.12-7.68-10.24-6.827L267.48,406.04l-23.893,5.12l-161.28-34.133c-4.267-0.853-9.387,1.707-10.24,6.827 l-6.827,33.28c-0.853,4.267,1.707,9.387,6.827,10.24l48.64,10.24l122.88,26.453L405.72,498.2c4.267,0.853,9.387-1.707,10.24-6.827 l3.413-17.067l3.413-16.213c0.853-4.267-1.707-9.387-6.827-10.24L366.467,437.613L366.467,437.613z M81.453,498.2 c-4.267,0.853-9.387-1.707-10.24-6.827l-6.827-33.28c-0.853-4.267,1.707-9.387,6.827-10.24l49.493-10.24l122.88,26.453 L81.453,498.2z"></path> <path style="fill:#FF7474;" d="M388.653,249.88c0,76.8-68.267,145.067-145.067,145.067S98.52,326.68,98.52,249.88 s42.667-144.213,93.867-195.413c0,51.2,17.067,85.333,17.067,85.333S226.52,45.933,269.187,3.267 C311.853,105.667,388.653,138.947,388.653,249.88"></path> <path style="fill:#EF4136;" d="M107.053,71.533c4.267,0,8.533,4.267,8.533,8.533c0,4.267-4.267,8.533-8.533,8.533 c-4.267,0-8.533-4.267-8.533-8.533C98.52,75.8,102.787,71.533,107.053,71.533"></path> </g> <path style="fill:#51565F;" d="M88.747,503.467c-2.56,0-5.12-0.853-6.827-1.707c-2.56-1.707-5.12-5.12-5.973-7.68L69.12,460.8 c-0.853-2.56,0.853-4.267,3.413-5.12c2.56-0.853,4.267,0.853,5.12,3.413l3.413,15.36l13.653-3.413c2.56-0.853,4.267,0.853,5.12,2.56 v0.853c0,1.707-0.853,3.413-3.413,4.267l-14.507,4.267l1.707,9.387c0,0.853,0.853,1.707,1.707,2.56 c0.853,0.853,1.707,0.853,3.413,0.853l84.48-17.92c2.56-0.853,4.267,0.853,5.12,3.413c0.853,2.56-0.853,4.267-3.413,5.12 l-84.48,17.92C90.453,503.467,89.6,503.467,88.747,503.467z M415.573,503.467c-0.853,0-1.707,0-2.56,0L79.36,432.64 c-6.827-1.707-11.093-8.533-10.24-15.36L75.947,384c1.707-6.827,8.533-11.093,15.36-10.24l50.347,11.093l0,0L424.96,445.44 c6.827,1.707,11.093,8.533,10.24,15.36l-3.413,16.213v0.853v0.853l-3.413,16.213C426.667,499.2,421.547,503.467,415.573,503.467z M81.067,404.48l-3.413,14.507c-0.853,2.56,0.853,4.267,3.413,5.12l333.653,70.827c2.56,0.853,4.267-0.853,5.12-3.413l2.56-12.8 l-38.4-7.68c-1.707,0-3.413-2.56-3.413-4.267v-0.853c0.853-2.56,2.56-3.413,5.12-3.413l38.4,7.68l2.56-12.8 c0.853-2.56-0.853-4.267-3.413-5.12L89.6,381.44c-2.56-0.853-4.267,0.853-5.12,3.413l-2.56,11.093l19.627,4.267 c1.707,0.853,3.413,2.56,3.413,4.267v0.853c-0.853,2.56-2.56,3.413-5.12,3.413L81.067,404.48z M299.52,453.12h-0.853l-84.48-18.773 c-1.707-0.853-3.413-2.56-3.413-4.267v-0.853c0.853-2.56,2.56-3.413,5.12-3.413l84.48,18.773c1.707,0.853,3.413,2.56,3.413,4.267 v0.853C302.933,451.413,301.227,453.12,299.52,453.12z M430.933,422.4c-1.707,0-3.413-1.707-4.267-3.413l-3.413-13.653l-12.8,3.413 c-2.56,0.853-4.267-0.853-5.12-2.56v-0.853c0-1.707,0.853-3.413,3.413-4.267L422.4,396.8l-2.56-11.093 c-0.853-2.56-2.56-3.413-5.12-3.413l-58.88,12.8c-2.56,0.853-4.267-0.853-5.12-3.413c-0.853-2.56,0.853-4.267,3.413-5.12l58.88-12.8 c6.827-1.707,13.653,2.56,15.36,10.24l6.827,33.28c0.853,2.56-0.853,4.267-3.413,5.12C431.787,422.4,431.787,422.4,430.933,422.4z M252.587,400.213c-79.36,0-149.333-69.973-149.333-149.333c0-85.333,52.053-155.307,94.72-197.973 c0.853-0.853,3.413-1.707,4.267-0.853c1.707,0.853,2.56,2.56,2.56,4.267c0,31.573,6.827,56.32,11.947,70.827 c6.827-28.16,24.747-91.307,58.027-124.587c0.853-0.853,2.56-1.707,4.267-0.853c1.707,0,2.56,0.853,3.413,2.56 C298.667,43.52,320,72.533,340.48,99.84c31.573,42.667,61.44,82.773,61.44,152.747C401.92,330.24,331.947,400.213,252.587,400.213z M197.12,65.707c-40.96,42.667-85.333,107.52-85.333,185.173c0,75.093,65.707,140.8,140.8,140.8s140.8-65.707,140.8-140.8 c0-66.56-28.16-104.107-59.733-147.627c-19.627-26.453-40.107-54.613-56.32-91.307c-38.4,43.52-53.76,128.853-53.76,129.707 c0,1.707-1.707,3.413-3.413,3.413s-3.413-0.853-4.267-2.56C214.187,141.653,198.827,111.787,197.12,65.707z M252.587,349.013 c-2.56,0-4.267-1.707-4.267-4.267c0-2.56,1.707-4.267,4.267-4.267c49.493,0,89.6-40.107,89.6-89.6c0-2.56,1.707-4.267,4.267-4.267 s4.267,1.707,4.267,4.267C350.72,304.64,306.347,349.013,252.587,349.013z M218.453,342.187c-0.853,0-0.853,0-1.707,0 c-12.8-5.12-23.893-12.8-34.133-22.187c-1.707-1.707-1.707-4.267,0-5.973c1.707-1.707,4.267-1.707,5.973,0 c8.533,8.533,19.627,15.36,30.72,20.48c2.56,0.853,3.413,3.413,2.56,5.12C221.867,341.333,220.16,342.187,218.453,342.187z M116.053,93.867c-6.827,0-12.8-5.973-12.8-12.8c0-6.827,5.973-12.8,12.8-12.8c6.827,0,12.8,5.973,12.8,12.8 C128.853,87.893,122.88,93.867,116.053,93.867z M116.053,76.8c-2.56,0-4.267,1.707-4.267,4.267c0,2.56,1.707,4.267,4.267,4.267 c2.56,0,4.267-1.707,4.267-4.267C120.32,78.507,118.613,76.8,116.053,76.8z M188.587,17.067c-5.12,0-8.533-3.413-8.533-8.533 S183.467,0,188.587,0c5.12,0,8.533,3.413,8.533,8.533S192.853,17.067,188.587,17.067z"></path> </g></svg>