<svg version="1.1" id="Layer_1" xmlns="http://www.w3.org/2000/svg" xmlns:xlink="http://www.w3.org/1999/xlink" viewBox="0 0 512 512" xml:space="preserve" width="30px" height="30px" fill="#000000"><g id="SVGRepo_bgCarrier" stroke-width="0"></g><g id="SVGRepo_tracerCarrier" stroke-linecap="round" stroke-linejoin="round"></g><g id="SVGRepo_iconCarrier"> <path style="fill:#E7ECED;" d="M256,123.684c13.445,0,24.358,10.912,24.358,24.358c0,13.445-10.912,24.358-24.358,24.358 c-13.445,0-24.358-10.913-24.358-24.358C231.642,134.597,242.555,123.684,256,123.684z"></path> <rect x="124.468" y="459.823" style="fill:#BBC0C2;" width="263.064" height="43.844"></rect> <rect x="124.468" y="415.986" style="fill:#E7ECED;" width="263.064" height="43.844"></rect> <rect x="124.468" y="367.263" style="fill:#BBC0C2;" width="263.064" height="48.717"></rect> <rect x="124.468" y="318.551" style="fill:#E7ECED;" width="263.064" height="48.717"></rect> <path style="fill:#AFB6BB;" d="M407.021,206.503h48.717v38.973h-29.23v258.196h-38.973v-43.844v-43.844v-48.717V318.55H124.466 v48.717v48.717v43.844v43.844H85.494V245.476H56.263v-38.973h48.717L256,60.354L407.021,206.503z M280.358,148.042 c0-13.445-10.912-24.358-24.358-24.358c-13.445,0-24.358,10.912-24.358,24.358c0,13.445,10.912,24.358,24.358,24.358 C269.446,172.401,280.358,161.489,280.358,148.042z"></path> <polygon style="fill:#546A79;" points="455.737,206.503 407.021,206.503 256,60.354 104.98,206.503 56.263,206.503 256,11.637 "></polygon> <rect x="56.263" y="206.499" style="fill:#969DA2;" width="399.471" height="38.972"></rect> <path d="M288.688,148.042c0-18.024-14.664-32.688-32.688-32.688s-32.688,14.664-32.688,32.688S237.976,180.73,256,180.73 S288.688,166.067,288.688,148.042z M239.973,148.042c0-8.838,7.19-16.029,16.029-16.029c8.838,0,16.029,7.19,16.029,16.029 s-7.19,16.029-16.029,16.029C247.163,164.071,239.973,156.881,239.973,148.042z"></path> <g> <rect x="217.028" y="276.113" style="fill:#FFFFFF;" width="77.944" height="16.659"></rect> <rect x="309.588" y="276.113" style="fill:#FFFFFF;" width="29.23" height="16.659"></rect> <rect x="173.18" y="276.113" style="fill:#FFFFFF;" width="29.23" height="16.659"></rect> </g> <path d="M434.837,495.341V253.804h29.23v-55.633h-4.94L344.642,86.479l-11.634,11.924l102.263,99.769h-24.88L256,48.762 L101.609,198.173H76.73L256,23.274l62.363,60.841l11.634-11.925L256,0L52.874,198.173h-4.94v55.633h29.23v35.516h16.659v-35.516 h298.583v-16.659H64.593v-22.314h43.757L256,71.945l130.435,126.227h-174.28v16.659h235.251v22.314h-29.23v258.195h-22.314V310.22 H116.137v185.121H93.823V303.938H77.163v191.402H41.649V512h428.703v-16.659H434.837z M379.204,407.652H132.797v-32.057h246.408 V407.652z M379.204,424.311v27.185H132.797v-27.185H379.204z M379.204,326.879v32.057H132.797v-32.057H379.204z M132.797,468.156 h246.408v27.185H132.797V468.156z"></path> <rect x="148.824" y="198.17" width="38.972" height="16.659"></rect> </g></svg>