<svg fill="#06A3DA" version="1.1" id="Capa_1" xmlns="http://www.w3.org/2000/svg" xmlns:xlink="http://www.w3.org/1999/xlink" width="20px" height="20px" viewBox="0 0 111.2 111.2" xml:space="preserve" stroke="#06A3DA"><g id="SVGRepo_bgCarrier" stroke-width="0"></g><g id="SVGRepo_tracerCarrier" stroke-linecap="round" stroke-linejoin="round"></g><g id="SVGRepo_iconCarrier"> <g> <g> <path d="M106.761,23.721H83.848V10.382c0-2.463-1.979-4.458-4.445-4.458H31.813c-2.469,0-4.445,1.994-4.445,4.458v13.338H4.445 C1.982,23.721,0,25.715,0,28.178v72.641c0,2.46,1.982,4.457,4.445,4.457h102.304c2.466,0,4.451-1.997,4.451-4.457V28.178 C111.212,25.715,109.228,23.721,106.761,23.721z M36.258,14.827h38.688v8.894H36.258V14.827z M102.316,96.373H8.912V32.617h93.405 V96.373z"></path> <path d="M69.782,62.359h-9.737v-9.73c0-2.46-1.979-4.448-4.444-4.448c-2.47,0-4.445,1.988-4.445,4.448v9.73h-9.74 c-2.463,0-4.455,1.997-4.455,4.457c0,2.448,1.991,4.445,4.455,4.445h9.74v9.742c0,2.461,1.976,4.445,4.445,4.445 c2.466,0,4.444-1.979,4.444-4.445v-9.742h9.737c2.466,0,4.444-1.997,4.444-4.445C74.227,64.356,72.248,62.359,69.782,62.359z"></path> </g> </g> </g></svg>