<svg version="1.1" id="Layer_1" xmlns="http://www.w3.org/2000/svg" xmlns:xlink="http://www.w3.org/1999/xlink" viewBox="0 0 512 512" xml:space="preserve" width="30px" height="30px" fill="#000000"><g id="SVGRepo_bgCarrier" stroke-width="0"></g><g id="SVGRepo_tracerCarrier" stroke-linecap="round" stroke-linejoin="round"></g><g id="SVGRepo_iconCarrier"> <g> <rect x="433.231" y="27.569" style="fill:#F4B2B0;" width="63.015" height="456.862"></rect> <rect x="15.754" y="27.569" style="fill:#F4B2B0;" width="63.015" height="456.862"></rect> </g> <path style="fill:#B3404A;" d="M496.246,11.815h-63.015c-8.699,0-15.754,7.055-15.754,15.754v162.789h-51.2V59.077 c0-8.699-7.055-15.754-15.754-15.754h-256V27.569c0-8.699-7.055-15.754-15.754-15.754H15.754C7.055,11.815,0,18.87,0,27.569v456.862 c0,8.699,7.055,15.754,15.754,15.754h63.015c8.699,0,15.754-7.055,15.754-15.754V295.385h322.954v189.046 c0,8.699,7.055,15.754,15.754,15.754h63.015c8.699,0,15.754-7.055,15.754-15.754V27.569C512,18.87,504.945,11.815,496.246,11.815z M63.015,468.677H31.508V43.323h31.508V468.677z M334.769,116.842h-63.015V74.831h63.015V116.842z M240.246,116.842h-63.015V74.831 h63.015V116.842z M240.246,148.349v42.009h-63.015v-42.009H240.246z M177.231,221.866h63.015v42.011h-63.015V221.866z M271.754,221.866h63.015v42.011h-63.015V221.866z M271.754,190.358v-42.009h63.015v42.009H271.754z M145.723,74.831v42.011h-51.2 V74.831H145.723z M94.523,148.349h51.2v115.528h-51.2V148.349z M366.277,263.877v-42.011h51.2v42.011H366.277z M480.492,468.677 h-31.508V43.323h31.508V468.677z"></path> </g></svg>