<svg version="1.1" id="Layer_1" xmlns="http://www.w3.org/2000/svg" xmlns:xlink="http://www.w3.org/1999/xlink" viewBox="0 0 511.999 511.999" xml:space="preserve" width="40px" height="40px" fill="#000000"><g id="SVGRepo_bgCarrier" stroke-width="0"></g><g id="SVGRepo_tracerCarrier" stroke-linecap="round" stroke-linejoin="round"></g><g id="SVGRepo_iconCarrier"> <path style="fill:#F44A46;" d="M435.026,195.509c-16.353-1.263-31.855,2.789-44.673,10.614v-24.727c0-1.356-1.099-2.454-2.454-2.454 H98.71c-1.356,0-2.454,1.099-2.454,2.454v141.435c0,60.553,49.088,109.641,109.641,109.641h74.953 c57.186,0,104.152-43.738,109.233-99.6c11.369,7.052,24.781,11.134,39.143,11.134c41.011,0,74.221-33.19,74.322-74.176 C503.645,230.71,474.03,198.522,435.026,195.509z M426.598,305.762c-19.603,0-35.494-15.891-35.494-35.494 s15.891-35.494,35.494-35.494c19.603,0,35.494,15.891,35.494,35.494S446.201,305.762,426.598,305.762z"></path> <path style="fill:#D1D1D1;" d="M130.891,322.832V181.396c0-1.356,1.099-2.453,2.453-2.453H98.71c-1.356,0-2.453,1.099-2.453,2.453 v141.435c0,60.553,49.088,109.641,109.641,109.641h34.633C179.979,432.473,130.891,383.385,130.891,322.832z"></path> <path style="fill:#FFDB6C;" d="M443.63,482.358H58.336c-27.55,0-49.885-22.334-49.885-49.885l0,0h485.064l0,0 C493.515,460.024,471.18,482.358,443.63,482.358z"></path> <path style="fill:#FFB04C;" d="M432.386,432.473c0,27.55-22.334,49.885-49.885,49.885h61.129c27.55,0,49.885-22.334,49.885-49.885 H432.386z"></path> <rect x="96.251" y="209.833" style="fill:#FF705B;" width="294.095" height="12.887"></rect> <rect x="96.251" y="235.062" style="fill:#FFB04C;" width="294.095" height="12.887"></rect> <rect x="96.251" y="209.833" style="fill:#F44A46;" width="34.633" height="12.887"></rect> <rect x="96.251" y="235.062" style="fill:#FFB04C;" width="34.633" height="12.887"></rect> <path style="fill:#D1D1D1;" d="M390.353,333.033c8.967,5.509,19.191,9.172,30.142,10.456v-38.261 c-16.692-2.895-29.39-17.441-29.39-34.96s12.698-32.065,29.39-34.96v-39.523c-10.939,1.261-21.195,4.877-30.142,10.338V333.033z"></path> <path d="M493.515,424.022H341.774c6.719-4.049,13.071-8.782,18.947-14.175c3.439-3.156,3.668-8.502,0.512-11.941 c-3.155-3.438-8.501-3.67-11.941-0.512c-18.711,17.17-43.017,26.628-68.441,26.628h-74.954c-55.797,0-101.19-45.393-101.19-101.19 V187.394H381.9v18.73c0,3.056,1.651,5.874,4.316,7.37c2.664,1.493,5.93,1.434,8.539-0.158c11.856-7.237,25.56-10.484,39.62-9.402 c34.702,2.681,60.808,31.002,60.722,65.875c-0.088,36.253-29.638,65.747-65.871,65.747c-12.287,0-24.283-3.411-34.689-9.866 c-2.491-1.544-5.604-1.687-8.226-0.381c-2.622,1.307-4.38,3.88-4.645,6.798c-0.64,7.044-2.024,14.025-4.112,20.752 c-1.384,4.458,1.108,9.192,5.565,10.577c4.459,1.381,9.194-1.109,10.577-5.565c1.226-3.949,2.242-7.971,3.047-12.041 c10.218,4.358,21.254,6.628,32.481,6.628c45.53,0,82.661-37.057,82.773-82.607c0.052-21.063-7.703-41.11-21.835-56.448 c-14.145-15.352-33.495-24.7-54.488-26.32c-12.753-0.99-25.278,0.883-36.874,5.436v-11.123c0-6.013-4.893-10.905-10.905-10.905 H98.711c-6.013,0-10.905,4.893-10.905,10.905v141.436c0,42.886,22.981,80.502,57.273,101.19H8.451c-4.668,0-8.451,3.783-8.451,8.451 c0,32.167,26.17,58.336,58.336,58.336h385.296c15.581,0,30.231-6.068,41.249-17.087c11.018-11.018,17.087-25.667,17.086-41.249 C501.966,427.805,498.181,424.022,493.515,424.022z M472.928,461.771c-7.826,7.826-18.231,12.137-29.298,12.137H58.336 c-19.951,0-36.654-14.175-40.567-32.983h188.13h74.954h203.355C482.589,448.768,478.723,455.977,472.928,461.771z"></path> <path d="M426.598,314.213c24.232,0,43.945-19.713,43.945-43.945s-19.713-43.945-43.945-43.945 c-24.232,0-43.945,19.713-43.945,43.945S402.367,314.213,426.598,314.213z M426.598,243.224c14.911,0,27.043,12.132,27.043,27.043 s-12.132,27.043-27.043,27.043s-27.043-12.132-27.043-27.043S411.686,243.224,426.598,243.224z"></path> <path d="M130.891,142.322c4.668,0,8.451-3.783,8.451-8.451V29.641c0-4.668-3.783-8.451-8.451-8.451 c-4.668,0-8.451,3.783-8.451,8.451v104.229C122.44,138.538,126.223,142.322,130.891,142.322z"></path> <path d="M199.625,142.322c4.668,0,8.451-3.783,8.451-8.451V50.857c0-4.668-3.783-8.451-8.451-8.451s-8.451,3.783-8.451,8.451v83.014 C191.174,138.538,194.958,142.322,199.625,142.322z"></path> </g></svg>