<svg xmlns="http://www.w3.org/2000/svg" xmlns:xlink="http://www.w3.org/1999/xlink" version="1.1" id="Capa_1" viewBox="0 0 501.055 501.055" xml:space="preserve" width="50px" height="50px" fill="#000000"><g id="SVGRepo_bgCarrier" stroke-width="0"></g><g id="SVGRepo_tracerCarrier" stroke-linecap="round" stroke-linejoin="round"></g><g id="SVGRepo_iconCarrier"> <g> <rect x="84.739" y="72.973" transform="matrix(0.9407 0.3394 -0.3394 0.9407 58.0621 -43.0731)" style="fill:#FABA45;" width="134.888" height="142.996"></rect> <rect x="57.439" y="23.63" transform="matrix(0.9406 0.3394 -0.3394 0.9406 43.7711 -18.0768)" style="fill:#E95B2D;" width="32.26" height="184.956"></rect> <rect x="212.332" y="130.189" transform="matrix(0.9407 0.3394 -0.3394 0.9407 79.0866 -79.8458)" style="fill:#FABA45;" width="111.003" height="112.014"></rect> <rect x="316.746" y="183.352" transform="matrix(0.9407 0.3394 -0.3394 0.9407 98.0655 -113.0434)" style="fill:#FABA45;" width="111.003" height="81.032"></rect> <rect x="422.614" y="239.125" transform="matrix(0.9406 0.3394 -0.3394 0.9406 112.8628 -138.9203)" style="fill:#E95B2D;" width="62.005" height="28.2"></rect> <path style="fill:#FABA45;" d="M85.283,36.115c-18.718-6.753-39.759,4.032-45.544,20.067l-30.47,84.45 c-5.785,16.035,3.523,37.768,22.241,44.521L85.283,36.115z"></path> <path style="fill:#0F2639;" d="M501.055,235.192l-14.109-5.091l-3.89,10.782l-44.215-15.952l8.965-24.848L343.39,162.411 l5.257-14.572l-104.414-37.672l5.258-14.572L122.607,49.818l7.12-19.734l-44.454-16.04l-4.73,13.112 c-2.319-0.389-4.677-0.589-7.062-0.589c-17.98,0-35.137,11.385-40.795,27.07l-30.47,84.45 c-6.732,18.663,2.446,40.746,19.933,50.921l-4.736,13.126l44.455,16.039l7.12-19.734l126.883,45.777l5.257-14.572l18.515,6.68 L118.354,481.279l13.861,5.732l53.847-130.223h35.716v42.909h15v-42.909h35.715l53.847,130.223l13.861-5.732l-97.909-236.784 l63.251,22.82l5.257-14.571l104.414,37.67l8.965-24.848l44.216,15.952l-3.891,10.783l14.109,5.091l3.891-10.783l0,0l14.662-40.636 l-0.001,0L501.055,235.192z M27.399,174.451c-9.112-6.82-15.245-19.714-11.075-31.273l30.47-84.45 c3.529-9.783,15.001-17.16,26.686-17.16c0.617,0,1.23,0.02,1.84,0.06L56.835,92.863L27.399,174.451z M36.612,193.114l22.645-62.764 l35.035-97.104l16.234,5.857l-57.679,159.87L36.612,193.114z M74.077,184.328l7.336-20.333l24.339-67.459l87.221,31.468 l5.091-14.109l-87.221-31.468l6.674-18.498l112.773,40.687l-0.167,0.463l0-0.001l-13.528,37.497l-29.745,82.441L74.077,184.328z M192.264,341.787l29.514-71.376v71.376H192.264z M236.779,341.787v-71.374l29.513,71.374H236.779z M296.524,248.115 l-90.305-32.582l21.159-58.649l64.753,23.362l5.09-14.109l-64.752-23.363l4.599-12.748l2.075-5.75l90.304,32.582l-9.356,25.934 l-23.401,64.86l0.001,0.001L296.524,248.115z M406.195,271.214l-90.304-32.58l10.645-29.506l64.754,23.362l5.09-14.109 l-64.753-23.362l6.674-18.498l90.305,32.581l-3.874,10.738l-0.001,0l-14.661,40.636l0,0L406.195,271.214z M473.485,267.41 l-44.214-15.953l4.479-12.416l44.215,15.952l-0.862,2.391L473.485,267.41z"></path> <rect x="221.779" y="419.699" style="fill:#0F2639;" width="15" height="64.446"></rect> </g> </g></svg>