<svg version="1.1" id="Layer_1" xmlns="http://www.w3.org/2000/svg" xmlns:xlink="http://www.w3.org/1999/xlink" viewBox="0 0 496 496" xml:space="preserve" width="30px" height="30px" fill="#000000"><g id="SVGRepo_bgCarrier" stroke-width="0"></g><g id="SVGRepo_tracerCarrier" stroke-linecap="round" stroke-linejoin="round"></g><g id="SVGRepo_iconCarrier"> <path style="fill:#5B402E;" d="M0,232v167.2C0,460.8,52,456,113.6,456h268c61.6,0,113.6,4.8,113.6-56.8V232H0z"></path> <path style="fill:#493322;" d="M112,456h270.4c61.6,0,113.6,4.8,113.6-56.8V232"></path> <path style="fill:#5B402E;" d="M496,192v-40c0-61.6-52-112-113.6-112H113.6C52,40,0,90.4,0,152v40H496z"></path> <path style="fill:#493322;" d="M0,152v40h496v-40c0-61.6-52-112-113.6-112"></path> <rect y="232" style="fill:#F2B111;" width="496" height="64"></rect> <polyline style="fill:#E88813;" points="0,296 496,296 496,232 "></polyline> <rect y="152" style="fill:#F2B111;" width="496" height="40"></rect> <g> <polyline style="fill:#E88813;" points="0,192 496,192 496,152 "></polyline> <rect x="104" y="32" style="fill:#E88813;" width="56" height="152"></rect> <rect x="336" y="32" style="fill:#E88813;" width="56" height="152"></rect> <rect x="104" y="288" style="fill:#E88813;" width="56" height="176"></rect> <rect x="336" y="288" style="fill:#E88813;" width="56" height="176"></rect> </g> <g> <circle style="fill:#493322;" cx="184" cy="264.8" r="8.8"></circle> <circle style="fill:#493322;" cx="226.4" cy="264.8" r="8.8"></circle> <circle style="fill:#493322;" cx="269.6" cy="264.8" r="8.8"></circle> <circle style="fill:#493322;" cx="312" cy="264.8" r="8.8"></circle> <circle style="fill:#493322;" cx="33.6" cy="264.8" r="8.8"></circle> <circle style="fill:#493322;" cx="75.2" cy="264.8" r="8.8"></circle> <circle style="fill:#493322;" cx="420" cy="264.8" r="8.8"></circle> <circle style="fill:#493322;" cx="462.4" cy="264.8" r="8.8"></circle> </g> <path style="fill:#F2B111;" d="M276,346.4c0-15.2-12.8-28-28-28s-28,12.8-28,28c0,10.4,5.6,20,13.6,25.6l-8,52h44.8l-8-52 C270.4,367.2,276,356.8,276,346.4z"></path> <path style="fill:#E88813;" d="M270.4,424l-8-52c8-4.8,13.6-15.2,13.6-25.6c0-15.2-12.8-28-28-28s-28,12.8-28,28"></path> </g></svg>