<svg height="300px" width="300px" version="1.1" id="Layer_1" xmlns="http://www.w3.org/2000/svg" xmlns:xlink="http://www.w3.org/1999/xlink" viewBox="0 0 504.32 504.32" xml:space="preserve" fill="#000000"><g id="SVGRepo_bgCarrier" stroke-width="0"></g><g id="SVGRepo_tracerCarrier" stroke-linecap="round" stroke-linejoin="round"></g><g id="SVGRepo_iconCarrier"> <g transform="translate(1 11)"> <path style="fill:#AE938D;" d="M344.6,360.627c0-28.16,23.04-51.2,51.2-51.2s51.2,23.04,51.2,51.2c0,28.16-23.04,51.2-51.2,51.2 S344.6,388.787,344.6,360.627z M105.667,309.427c28.16,0,51.2,23.04,51.2,51.2c0,28.16-23.04,51.2-51.2,51.2s-51.2-23.04-51.2-51.2 C54.467,332.467,77.507,309.427,105.667,309.427z"></path> <path style="fill:#ECF4F7;" d="M395.8,343.56c9.387,0,17.067,7.68,17.067,17.067s-7.68,17.067-17.067,17.067 s-17.067-7.68-17.067-17.067S386.413,343.56,395.8,343.56z M105.667,343.56c9.387,0,17.067,7.68,17.067,17.067 s-7.68,17.067-17.067,17.067S88.6,370.013,88.6,360.627S96.28,343.56,105.667,343.56z"></path> <path style="fill:#50DD8E;" d="M3.267,292.36V104.627c0-38.4,29.867-68.267,68.267-68.267H370.2c51.2,0,93.867,17.067,93.867,51.2 c0,10.24-6.827,17.067-17.067,17.067h-34.133h-85.333v119.467l37.547,95.573c-12.8,9.387-20.48,24.747-20.48,40.96H156.867 c0-28.16-23.04-51.2-51.2-51.2s-51.2,23.04-51.2,51.2H20.333c-9.387,0-17.067-7.68-17.067-17.067V292.36z M498.2,292.36v51.2 c0,10.24-6.827,17.067-17.067,17.067H447c0-28.16-23.04-51.2-51.2-51.2c-11.093,0-22.187,3.413-30.72,10.24l-37.547-95.573h76.8 H472.6l2.56-1.707l14.507,27.307C498.2,266.76,498.2,275.293,498.2,292.36z"></path> <path style="fill:#E4F2DE;" d="M404.333,224.093h-76.8V104.627h85.333l62.293,117.76l-2.56,1.707H404.333z M259.267,113.16v68.267 c0,4.267-3.413,8.533-8.533,8.533h-51.2c-5.12,0-8.533-4.267-8.533-8.533V113.16c0-4.267,3.413-8.533,8.533-8.533h51.2 C255.853,104.627,259.267,108.893,259.267,113.16z M139.8,113.16v68.267c0,4.267-4.267,8.533-8.533,8.533h-51.2 c-4.267,0-8.533-4.267-8.533-8.533V113.16c0-4.267,4.267-8.533,8.533-8.533h51.2C135.533,104.627,139.8,108.893,139.8,113.16z"></path> </g> <path style="fill:#51565F;" d="M499.2,461.227H362.667c-2.56,0-4.267-1.707-4.267-4.267s1.707-4.267,4.267-4.267H499.2 c2.56,0,4.267,1.707,4.267,4.267S501.76,461.227,499.2,461.227z M328.533,461.227h-17.067c-2.56,0-4.267-1.707-4.267-4.267 s1.707-4.267,4.267-4.267h17.067c2.56,0,4.267,1.707,4.267,4.267S331.093,461.227,328.533,461.227z M260.267,461.227h-85.333 c-2.56,0-4.267-1.707-4.267-4.267s1.707-4.267,4.267-4.267h85.333c2.56,0,4.267,1.707,4.267,4.267S262.827,461.227,260.267,461.227z M123.733,461.227H4.267c-2.56,0-4.267-1.707-4.267-4.267s1.707-4.267,4.267-4.267h119.467c2.56,0,4.267,1.707,4.267,4.267 S126.293,461.227,123.733,461.227z M396.8,427.093c-30.72,0-55.467-24.747-55.467-55.467S366.08,316.16,396.8,316.16 c29.013,0,52.907,22.187,55.467,51.2h29.867c7.68,0,12.8-5.12,12.8-12.8v-46.933H473.6c-2.56,0-4.267-1.707-4.267-4.267 s1.707-4.267,4.267-4.267h21.333c0-13.653-0.853-21.333-7.68-36.693L427.52,151.467c-0.853-1.707,0-4.267,1.707-5.973 c1.707-0.853,4.267,0,5.973,1.707l59.733,110.933c9.387,17.92,9.387,27.307,9.387,44.373v51.2c0,11.947-9.387,21.333-21.333,21.333 H453.12C449.707,404.907,425.813,427.093,396.8,427.093z M396.8,324.693c-25.6,0-46.933,21.333-46.933,46.933 S371.2,418.56,396.8,418.56s46.933-21.333,46.933-46.933S422.4,324.693,396.8,324.693z M106.667,427.093 c-30.72,0-55.467-24.747-55.467-55.467s24.747-55.467,55.467-55.467c29.013,0,52.907,22.187,55.467,51.2h149.333 c2.56,0,4.267,1.707,4.267,4.267s-1.707,4.267-4.267,4.267H162.133C159.573,404.907,135.68,427.093,106.667,427.093z M106.667,324.693c-25.6,0-46.933,21.333-46.933,46.933s21.333,46.933,46.933,46.933s46.933-21.333,46.933-46.933 S132.267,324.693,106.667,324.693z M396.8,392.96c-11.947,0-21.333-9.387-21.333-21.333s9.387-21.333,21.333-21.333 s21.333,9.387,21.333,21.333S408.747,392.96,396.8,392.96z M396.8,358.827c-6.827,0-12.8,5.973-12.8,12.8s5.973,12.8,12.8,12.8 s12.8-5.973,12.8-12.8S403.627,358.827,396.8,358.827z M106.667,392.96c-11.947,0-21.333-9.387-21.333-21.333 s9.387-21.333,21.333-21.333S128,359.68,128,371.627S118.613,392.96,106.667,392.96z M106.667,358.827 c-6.827,0-12.8,5.973-12.8,12.8s5.973,12.8,12.8,12.8s12.8-5.973,12.8-12.8S113.493,358.827,106.667,358.827z M25.6,375.893h-4.267 C9.387,375.893,0,366.507,0,354.56V115.627c0-40.96,31.573-72.533,72.533-72.533H371.2c59.733,0,98.133,22.187,98.133,55.467 c0,11.947-9.387,21.333-21.333,21.333H332.8v110.933h69.973l16.213-31.573c0.853-1.707,3.413-2.56,5.973-1.707 c1.707,0.853,2.56,2.56,2.56,3.413c0,0.853,0,1.707-0.853,1.707l-13.653,28.16h35.84c2.56,0,4.267,1.707,4.267,4.267 s-1.707,4.267-4.267,4.267h-42.667l0,0H335.36l23.04,62.293c0.853,2.56,0,4.267-2.56,5.12c-2.56,0.853-4.267,0-5.12-2.56 l-25.6-68.267c0-0.853,0-0.853,0-1.707l0,0l0,0l0,0l0,0l0,0V114.773c0-2.56,1.707-4.267,4.267-4.267h119.467 c7.68,0,12.8-5.12,12.8-12.8c0-34.987-48.64-46.933-89.6-46.933H73.386c-35.84,0-64,28.16-64,64V298.24h12.8 c2.56,0,4.267,1.707,4.267,4.267c0,2.56-1.707,4.267-4.267,4.267h-12.8v46.933c0,6.827,5.973,12.8,12.8,12.8h4.267 c2.56,0,4.267,1.707,4.267,4.267S28.16,375.893,25.6,375.893z M251.733,205.227h-51.2c-6.827,0-12.8-5.973-12.8-12.8V124.16 c0-6.827,5.973-12.8,12.8-12.8h51.2c6.827,0,12.8,5.973,12.8,12.8v68.267C264.533,199.253,258.56,205.227,251.733,205.227z M200.533,119.893c-2.56,0-4.267,1.707-4.267,4.267v68.267c0,2.56,1.707,4.267,4.267,4.267h51.2c2.56,0,4.267-1.707,4.267-4.267 V124.16c0-2.56-1.707-4.267-4.267-4.267H200.533z M132.267,205.227h-51.2c-6.827,0-12.8-5.973-12.8-12.8V124.16 c0-6.827,5.973-12.8,12.8-12.8h51.2c6.827,0,12.8,5.973,12.8,12.8v68.267C145.067,199.253,139.093,205.227,132.267,205.227z M81.067,119.893c-2.56,0-4.267,1.707-4.267,4.267v68.267c0,2.56,1.707,4.267,4.267,4.267h51.2c2.56,0,4.267-1.707,4.267-4.267 V124.16c0-2.56-1.707-4.267-4.267-4.267H81.067z"></path> </g></svg>